<svg width="382" height="164" viewBox="0 0 382 164" fill="none" xmlns="http://www.w3.org/2000/svg">
<rect x="1" y="1" width="380" height="48" rx="8" fill="#FAFAFA" stroke="#EEEEEE"/>
<path d="M134.394 28.0528H137.517V29H133.229V20.0784H134.394V28.0528ZM141.814 29.1152C141.156 29.1152 140.559 28.9659 140.022 28.6672C139.492 28.3685 139.074 27.9461 138.767 27.4C138.468 26.8453 138.319 26.2053 138.319 25.48C138.319 24.7632 138.473 24.1317 138.78 23.5856C139.096 23.0309 139.522 22.6085 140.06 22.3184C140.598 22.0197 141.199 21.8704 141.865 21.8704C142.53 21.8704 143.132 22.0197 143.67 22.3184C144.207 22.6085 144.63 23.0267 144.937 23.5728C145.252 24.1189 145.41 24.7547 145.41 25.48C145.41 26.2053 145.248 26.8453 144.924 27.4C144.608 27.9461 144.177 28.3685 143.631 28.6672C143.085 28.9659 142.479 29.1152 141.814 29.1152ZM141.814 28.0912C142.232 28.0912 142.624 27.9931 142.991 27.7968C143.358 27.6005 143.652 27.3061 143.874 26.9136C144.105 26.5211 144.22 26.0432 144.22 25.48C144.22 24.9168 144.109 24.4389 143.887 24.0464C143.665 23.6539 143.375 23.3637 143.017 23.176C142.658 22.9797 142.27 22.8816 141.852 22.8816C141.425 22.8816 141.033 22.9797 140.674 23.176C140.324 23.3637 140.043 23.6539 139.83 24.0464C139.616 24.4389 139.51 24.9168 139.51 25.48C139.51 26.0517 139.612 26.5339 139.817 26.9264C140.03 27.3189 140.312 27.6133 140.662 27.8096C141.011 27.9973 141.395 28.0912 141.814 28.0912ZM149.835 21.8704C150.441 21.8704 150.97 22.0027 151.422 22.2672C151.883 22.5317 152.224 22.8645 152.446 23.2656V21.9856H153.623V29.1536C153.623 29.7936 153.487 30.3611 153.214 30.856C152.941 31.3595 152.548 31.752 152.036 32.0336C151.533 32.3152 150.944 32.456 150.27 32.456C149.348 32.456 148.58 32.2384 147.966 31.8032C147.351 31.368 146.989 30.7749 146.878 30.024H148.03C148.158 30.4507 148.422 30.792 148.823 31.048C149.225 31.3125 149.707 31.4448 150.27 31.4448C150.91 31.4448 151.43 31.2443 151.831 30.8432C152.241 30.4421 152.446 29.8789 152.446 29.1536V27.6816C152.215 28.0912 151.874 28.4325 151.422 28.7056C150.97 28.9787 150.441 29.1152 149.835 29.1152C149.212 29.1152 148.644 28.9616 148.132 28.6544C147.629 28.3472 147.232 27.9163 146.942 27.3616C146.652 26.8069 146.507 26.1755 146.507 25.4672C146.507 24.7504 146.652 24.1232 146.942 23.5856C147.232 23.0395 147.629 22.6171 148.132 22.3184C148.644 22.0197 149.212 21.8704 149.835 21.8704ZM152.446 25.48C152.446 24.9509 152.339 24.4901 152.126 24.0976C151.913 23.7051 151.622 23.4064 151.255 23.2016C150.897 22.9883 150.5 22.8816 150.065 22.8816C149.63 22.8816 149.233 22.984 148.875 23.1888C148.516 23.3936 148.23 23.6923 148.017 24.0848C147.804 24.4773 147.697 24.9381 147.697 25.4672C147.697 26.0048 147.804 26.4741 148.017 26.8752C148.23 27.2677 148.516 27.5707 148.875 27.784C149.233 27.9888 149.63 28.0912 150.065 28.0912C150.5 28.0912 150.897 27.9888 151.255 27.784C151.622 27.5707 151.913 27.2677 152.126 26.8752C152.339 26.4741 152.446 26.0091 152.446 25.48ZM160.169 20.0784V29H159.004V20.0784H160.169ZM165.572 21.8576C166.425 21.8576 167.116 22.1179 167.646 22.6384C168.175 23.1504 168.439 23.8928 168.439 24.8656V29H167.287V25.032C167.287 24.3323 167.112 23.7989 166.762 23.432C166.412 23.0565 165.935 22.8688 165.329 22.8688C164.714 22.8688 164.224 23.0608 163.857 23.4448C163.498 23.8288 163.319 24.3877 163.319 25.1216V29H162.154V21.9856H163.319V22.984C163.55 22.6256 163.861 22.3483 164.254 22.152C164.655 21.9557 165.094 21.8576 165.572 21.8576ZM183.098 21.9856L180.91 29H179.706L178.017 23.432L176.327 29H175.124L172.922 21.9856H174.113L175.726 27.8736L177.466 21.9856H178.657L180.359 27.8864L181.946 21.9856H183.098ZM184.856 20.8464C184.634 20.8464 184.446 20.7696 184.293 20.616C184.139 20.4624 184.062 20.2747 184.062 20.0528C184.062 19.8309 184.139 19.6432 184.293 19.4896C184.446 19.336 184.634 19.2592 184.856 19.2592C185.069 19.2592 185.248 19.336 185.394 19.4896C185.547 19.6432 185.624 19.8309 185.624 20.0528C185.624 20.2747 185.547 20.4624 185.394 20.616C185.248 20.7696 185.069 20.8464 184.856 20.8464ZM185.419 21.9856V29H184.254V21.9856H185.419ZM188.825 22.9456V27.08C188.825 27.4213 188.898 27.6645 189.043 27.8096C189.188 27.9461 189.44 28.0144 189.798 28.0144H190.656V29H189.606C188.957 29 188.471 28.8507 188.147 28.552C187.822 28.2533 187.66 27.7627 187.66 27.08V22.9456H186.752V21.9856H187.66V20.2192H188.825V21.9856H190.656V22.9456H188.825ZM195.548 21.8576C196.078 21.8576 196.555 21.9728 196.982 22.2032C197.409 22.4251 197.742 22.7621 197.98 23.2144C198.228 23.6667 198.352 24.2171 198.352 24.8656V29H197.2V25.032C197.2 24.3323 197.025 23.7989 196.675 23.432C196.325 23.0565 195.847 22.8688 195.241 22.8688C194.627 22.8688 194.136 23.0608 193.769 23.4448C193.411 23.8288 193.232 24.3877 193.232 25.1216V29H192.067V19.528H193.232V22.984C193.462 22.6256 193.778 22.3483 194.179 22.152C194.588 21.9557 195.045 21.8576 195.548 21.8576ZM210.425 22.664C210.178 22.1435 209.819 21.7424 209.35 21.4608C208.881 21.1707 208.335 21.0256 207.712 21.0256C207.089 21.0256 206.526 21.1707 206.022 21.4608C205.527 21.7424 205.135 22.152 204.844 22.6896C204.563 23.2187 204.422 23.8331 204.422 24.5328C204.422 25.2325 204.563 25.8469 204.844 26.376C205.135 26.9051 205.527 27.3147 206.022 27.6048C206.526 27.8864 207.089 28.0272 207.712 28.0272C208.582 28.0272 209.299 27.7669 209.862 27.2464C210.425 26.7259 210.754 26.0219 210.848 25.1344H207.289V24.1872H212.089V25.0832C212.021 25.8171 211.791 26.4912 211.398 27.1056C211.006 27.7115 210.489 28.1936 209.849 28.552C209.209 28.9019 208.497 29.0768 207.712 29.0768C206.884 29.0768 206.129 28.8848 205.446 28.5008C204.763 28.1083 204.222 27.5664 203.82 26.8752C203.428 26.184 203.232 25.4032 203.232 24.5328C203.232 23.6624 203.428 22.8816 203.82 22.1904C204.222 21.4907 204.763 20.9488 205.446 20.5648C206.129 20.1723 206.884 19.976 207.712 19.976C208.659 19.976 209.495 20.2107 210.22 20.68C210.954 21.1493 211.488 21.8107 211.82 22.664H210.425ZM216.689 29.1152C216.031 29.1152 215.434 28.9659 214.897 28.6672C214.367 28.3685 213.949 27.9461 213.642 27.4C213.343 26.8453 213.194 26.2053 213.194 25.48C213.194 24.7632 213.348 24.1317 213.655 23.5856C213.971 23.0309 214.397 22.6085 214.935 22.3184C215.473 22.0197 216.074 21.8704 216.74 21.8704C217.405 21.8704 218.007 22.0197 218.545 22.3184C219.082 22.6085 219.505 23.0267 219.812 23.5728C220.127 24.1189 220.285 24.7547 220.285 25.48C220.285 26.2053 220.123 26.8453 219.799 27.4C219.483 27.9461 219.052 28.3685 218.506 28.6672C217.96 28.9659 217.354 29.1152 216.689 29.1152ZM216.689 28.0912C217.107 28.0912 217.499 27.9931 217.866 27.7968C218.233 27.6005 218.527 27.3061 218.749 26.9136C218.98 26.5211 219.095 26.0432 219.095 25.48C219.095 24.9168 218.984 24.4389 218.762 24.0464C218.54 23.6539 218.25 23.3637 217.892 23.176C217.533 22.9797 217.145 22.8816 216.727 22.8816C216.3 22.8816 215.908 22.9797 215.549 23.176C215.199 23.3637 214.918 23.6539 214.705 24.0464C214.491 24.4389 214.385 24.9168 214.385 25.48C214.385 26.0517 214.487 26.5339 214.692 26.9264C214.905 27.3189 215.187 27.6133 215.537 27.8096C215.886 27.9973 216.27 28.0912 216.689 28.0912ZM224.876 29.1152C224.219 29.1152 223.622 28.9659 223.084 28.6672C222.555 28.3685 222.137 27.9461 221.83 27.4C221.531 26.8453 221.382 26.2053 221.382 25.48C221.382 24.7632 221.535 24.1317 221.842 23.5856C222.158 23.0309 222.585 22.6085 223.122 22.3184C223.66 22.0197 224.262 21.8704 224.927 21.8704C225.593 21.8704 226.194 22.0197 226.732 22.3184C227.27 22.6085 227.692 23.0267 227.999 23.5728C228.315 24.1189 228.473 24.7547 228.473 25.48C228.473 26.2053 228.311 26.8453 227.986 27.4C227.671 27.9461 227.24 28.3685 226.694 28.6672C226.148 28.9659 225.542 29.1152 224.876 29.1152ZM224.876 28.0912C225.294 28.0912 225.687 27.9931 226.054 27.7968C226.421 27.6005 226.715 27.3061 226.937 26.9136C227.167 26.5211 227.282 26.0432 227.282 25.48C227.282 24.9168 227.172 24.4389 226.95 24.0464C226.728 23.6539 226.438 23.3637 226.079 23.176C225.721 22.9797 225.333 22.8816 224.914 22.8816C224.488 22.8816 224.095 22.9797 223.737 23.176C223.387 23.3637 223.105 23.6539 222.892 24.0464C222.679 24.4389 222.572 24.9168 222.572 25.48C222.572 26.0517 222.674 26.5339 222.879 26.9264C223.093 27.3189 223.374 27.6133 223.724 27.8096C224.074 27.9973 224.458 28.0912 224.876 28.0912ZM232.897 21.8704C233.503 21.8704 234.032 22.0027 234.484 22.2672C234.945 22.5317 235.286 22.8645 235.508 23.2656V21.9856H236.686V29.1536C236.686 29.7936 236.549 30.3611 236.276 30.856C236.003 31.3595 235.611 31.752 235.099 32.0336C234.595 32.3152 234.006 32.456 233.332 32.456C232.411 32.456 231.643 32.2384 231.028 31.8032C230.414 31.368 230.051 30.7749 229.94 30.024H231.092C231.22 30.4507 231.485 30.792 231.886 31.048C232.287 31.3125 232.769 31.4448 233.332 31.4448C233.972 31.4448 234.493 31.2443 234.894 30.8432C235.304 30.4421 235.508 29.8789 235.508 29.1536V27.6816C235.278 28.0912 234.937 28.4325 234.484 28.7056C234.032 28.9787 233.503 29.1152 232.897 29.1152C232.274 29.1152 231.707 28.9616 231.195 28.6544C230.691 28.3472 230.294 27.9163 230.004 27.3616C229.714 26.8069 229.569 26.1755 229.569 25.4672C229.569 24.7504 229.714 24.1232 230.004 23.5856C230.294 23.0395 230.691 22.6171 231.195 22.3184C231.707 22.0197 232.274 21.8704 232.897 21.8704ZM235.508 25.48C235.508 24.9509 235.402 24.4901 235.188 24.0976C234.975 23.7051 234.685 23.4064 234.318 23.2016C233.96 22.9883 233.563 22.8816 233.128 22.8816C232.692 22.8816 232.296 22.984 231.937 23.1888C231.579 23.3936 231.293 23.6923 231.08 24.0848C230.866 24.4773 230.76 24.9381 230.76 25.4672C230.76 26.0048 230.866 26.4741 231.08 26.8752C231.293 27.2677 231.579 27.5707 231.937 27.784C232.296 27.9888 232.692 28.0912 233.128 28.0912C233.563 28.0912 233.96 27.9888 234.318 27.784C234.685 27.5707 234.975 27.2677 235.188 26.8752C235.402 26.4741 235.508 26.0091 235.508 25.48ZM239.819 19.528V29H238.654V19.528H239.819ZM248.204 25.224C248.204 25.4459 248.192 25.6805 248.166 25.928H242.56C242.602 26.6192 242.837 27.1611 243.264 27.5536C243.699 27.9376 244.224 28.1296 244.838 28.1296C245.341 28.1296 245.76 28.0144 246.092 27.784C246.434 27.5451 246.673 27.2293 246.809 26.8368H248.064C247.876 27.5109 247.5 28.0613 246.937 28.488C246.374 28.9061 245.674 29.1152 244.838 29.1152C244.172 29.1152 243.575 28.9659 243.046 28.6672C242.525 28.3685 242.116 27.9461 241.817 27.4C241.518 26.8453 241.369 26.2053 241.369 25.48C241.369 24.7547 241.514 24.1189 241.804 23.5728C242.094 23.0267 242.5 22.6085 243.02 22.3184C243.549 22.0197 244.155 21.8704 244.838 21.8704C245.504 21.8704 246.092 22.0155 246.604 22.3056C247.116 22.5957 247.509 22.9968 247.782 23.5088C248.064 24.0123 248.204 24.584 248.204 25.224ZM247.001 24.9808C247.001 24.5371 246.903 24.1573 246.707 23.8416C246.51 23.5173 246.242 23.2741 245.9 23.112C245.568 22.9413 245.196 22.856 244.787 22.856C244.198 22.856 243.694 23.0437 243.276 23.4192C242.867 23.7947 242.632 24.3152 242.572 24.9808H247.001Z" fill="#616161"/>
<mask id="mask0_7_7340" style="mask-type:luminance" maskUnits="userSpaceOnUse" x="41" y="16" width="18" height="18">
<rect x="41" y="16" width="18" height="18" fill="white"/>
</mask>
<g mask="url(#mask0_7_7340)">
<path fill-rule="evenodd" clip-rule="evenodd" d="M57.3541 23.5311H56.75V23.5H50V26.5H54.2386C53.6203 28.2464 51.9586 29.5 50 29.5C47.5149 29.5 45.5 27.4851 45.5 25C45.5 22.5149 47.5149 20.5 50 20.5C51.1471 20.5 52.1908 20.9327 52.9854 21.6396L55.1067 19.5182C53.7673 18.2699 51.9755 17.5 50 17.5C45.8581 17.5 42.5 20.8581 42.5 25C42.5 29.1419 45.8581 32.5 50 32.5C54.1419 32.5 57.5 29.1419 57.5 25C57.5 24.4971 57.4482 24.0062 57.3541 23.5311Z" fill="#FFC107"/>
<path fill-rule="evenodd" clip-rule="evenodd" d="M43.3633 21.5091L45.8274 23.3162C46.4942 21.6655 48.1089 20.5 49.9985 20.5C51.1457 20.5 52.1893 20.9328 52.9839 21.6396L55.1053 19.5182C53.7658 18.2699 51.974 17.5 49.9985 17.5C47.1178 17.5 44.6195 19.1264 43.3633 21.5091Z" fill="#FF3D00"/>
<path fill-rule="evenodd" clip-rule="evenodd" d="M50.0011 32.4993C51.9383 32.4993 53.6986 31.7579 55.0295 30.5523L52.7082 28.588C51.9552 29.1584 51.0192 29.4993 50.0011 29.4993C48.0503 29.4993 46.394 28.2554 45.77 26.5195L43.3242 28.4039C44.5655 30.8328 47.0862 32.4993 50.0011 32.4993Z" fill="#4CAF50"/>
<path fill-rule="evenodd" clip-rule="evenodd" d="M57.3541 23.5311H56.75V23.5H50V26.5H54.2386C53.9416 27.3389 53.402 28.0623 52.706 28.5891C52.7064 28.5888 52.7068 28.5887 52.7071 28.5884L55.0284 30.5526C54.8641 30.7019 57.5 28.75 57.5 25C57.5 24.4971 57.4482 24.0063 57.3541 23.5311Z" fill="#1976D2"/>
</g>
<rect x="1" y="58" width="380" height="48" rx="8" fill="#FAFAFA" stroke="#EEEEEE"/>
<mask id="mask1_7_7340" style="mask-type:luminance" maskUnits="userSpaceOnUse" x="41" y="73" width="18" height="18">
<rect x="41" y="73" width="18" height="18" fill="white"/>
</mask>
<g mask="url(#mask1_7_7340)">
<path fill-rule="evenodd" clip-rule="evenodd" d="M50 74.875C46.065 74.875 42.875 78.065 42.875 82C42.875 85.935 46.0649 89.125 50 89.125C53.935 89.125 57.125 85.9351 57.125 82C57.125 78.065 53.9351 74.875 50 74.875H50Z" fill="#039BE5"/>
<path fill-rule="evenodd" clip-rule="evenodd" d="M50.965 83.8889H52.8089L53.0984 82.0158H50.9646V80.992C50.9646 80.2139 51.2189 79.5239 51.9467 79.5239H53.1164V77.8893C52.9109 77.8615 52.4762 77.8008 51.655 77.8008C49.9401 77.8008 48.9347 78.7064 48.9347 80.7697V82.0158H47.1719V83.8889H48.9347V89.0373C49.2839 89.0898 49.6375 89.1254 50.0005 89.1254C50.3286 89.1254 50.6489 89.0954 50.965 89.0527V83.8889Z" fill="white"/>
</g>
<path d="M126.219 85.0528H129.342V86H125.054V77.0784H126.219V85.0528ZM133.639 86.1152C132.981 86.1152 132.384 85.9659 131.847 85.6672C131.317 85.3685 130.899 84.9461 130.592 84.4C130.293 83.8453 130.144 83.2053 130.144 82.48C130.144 81.7632 130.298 81.1317 130.605 80.5856C130.921 80.0309 131.347 79.6085 131.885 79.3184C132.423 79.0197 133.024 78.8704 133.69 78.8704C134.355 78.8704 134.957 79.0197 135.495 79.3184C136.032 79.6085 136.455 80.0267 136.762 80.5728C137.077 81.1189 137.235 81.7547 137.235 82.48C137.235 83.2053 137.073 83.8453 136.749 84.4C136.433 84.9461 136.002 85.3685 135.456 85.6672C134.91 85.9659 134.304 86.1152 133.639 86.1152ZM133.639 85.0912C134.057 85.0912 134.449 84.9931 134.816 84.7968C135.183 84.6005 135.477 84.3061 135.699 83.9136C135.93 83.5211 136.045 83.0432 136.045 82.48C136.045 81.9168 135.934 81.4389 135.712 81.0464C135.49 80.6539 135.2 80.3637 134.842 80.176C134.483 79.9797 134.095 79.8816 133.677 79.8816C133.25 79.8816 132.858 79.9797 132.499 80.176C132.149 80.3637 131.868 80.6539 131.655 81.0464C131.441 81.4389 131.335 81.9168 131.335 82.48C131.335 83.0517 131.437 83.5339 131.642 83.9264C131.855 84.3189 132.137 84.6133 132.487 84.8096C132.836 84.9973 133.22 85.0912 133.639 85.0912ZM141.66 78.8704C142.266 78.8704 142.795 79.0027 143.247 79.2672C143.708 79.5317 144.049 79.8645 144.271 80.2656V78.9856H145.448V86.1536C145.448 86.7936 145.312 87.3611 145.039 87.856C144.766 88.3595 144.373 88.752 143.861 89.0336C143.358 89.3152 142.769 89.456 142.095 89.456C141.173 89.456 140.405 89.2384 139.791 88.8032C139.176 88.368 138.814 87.7749 138.703 87.024H139.855C139.983 87.4507 140.247 87.792 140.648 88.048C141.05 88.3125 141.532 88.4448 142.095 88.4448C142.735 88.4448 143.255 88.2443 143.656 87.8432C144.066 87.4421 144.271 86.8789 144.271 86.1536V84.6816C144.04 85.0912 143.699 85.4325 143.247 85.7056C142.795 85.9787 142.266 86.1152 141.66 86.1152C141.037 86.1152 140.469 85.9616 139.957 85.6544C139.454 85.3472 139.057 84.9163 138.767 84.3616C138.477 83.8069 138.332 83.1755 138.332 82.4672C138.332 81.7504 138.477 81.1232 138.767 80.5856C139.057 80.0395 139.454 79.6171 139.957 79.3184C140.469 79.0197 141.037 78.8704 141.66 78.8704ZM144.271 82.48C144.271 81.9509 144.164 81.4901 143.951 81.0976C143.738 80.7051 143.447 80.4064 143.08 80.2016C142.722 79.9883 142.325 79.8816 141.89 79.8816C141.455 79.8816 141.058 79.984 140.7 80.1888C140.341 80.3936 140.055 80.6923 139.842 81.0848C139.629 81.4773 139.522 81.9381 139.522 82.4672C139.522 83.0048 139.629 83.4741 139.842 83.8752C140.055 84.2677 140.341 84.5707 140.7 84.784C141.058 84.9888 141.455 85.0912 141.89 85.0912C142.325 85.0912 142.722 84.9888 143.08 84.784C143.447 84.5707 143.738 84.2677 143.951 83.8752C144.164 83.4741 144.271 83.0091 144.271 82.48ZM151.994 77.0784V86H150.829V77.0784H151.994ZM157.397 78.8576C158.25 78.8576 158.941 79.1179 159.471 79.6384C160 80.1504 160.264 80.8928 160.264 81.8656V86H159.112V82.032C159.112 81.3323 158.937 80.7989 158.587 80.432C158.237 80.0565 157.76 79.8688 157.154 79.8688C156.539 79.8688 156.049 80.0608 155.682 80.4448C155.323 80.8288 155.144 81.3877 155.144 82.1216V86H153.979V78.9856H155.144V79.984C155.375 79.6256 155.686 79.3483 156.079 79.152C156.48 78.9557 156.919 78.8576 157.397 78.8576ZM174.923 78.9856L172.735 86H171.531L169.842 80.432L168.152 86H166.949L164.747 78.9856H165.938L167.551 84.8736L169.291 78.9856H170.482L172.184 84.8864L173.771 78.9856H174.923ZM176.681 77.8464C176.459 77.8464 176.271 77.7696 176.118 77.616C175.964 77.4624 175.887 77.2747 175.887 77.0528C175.887 76.8309 175.964 76.6432 176.118 76.4896C176.271 76.336 176.459 76.2592 176.681 76.2592C176.894 76.2592 177.073 76.336 177.219 76.4896C177.372 76.6432 177.449 76.8309 177.449 77.0528C177.449 77.2747 177.372 77.4624 177.219 77.616C177.073 77.7696 176.894 77.8464 176.681 77.8464ZM177.244 78.9856V86H176.079V78.9856H177.244ZM180.65 79.9456V84.08C180.65 84.4213 180.723 84.6645 180.868 84.8096C181.013 84.9461 181.265 85.0144 181.623 85.0144H182.481V86H181.431C180.782 86 180.296 85.8507 179.972 85.552C179.647 85.2533 179.485 84.7627 179.485 84.08V79.9456H178.577V78.9856H179.485V77.2192H180.65V78.9856H182.481V79.9456H180.65ZM187.373 78.8576C187.903 78.8576 188.38 78.9728 188.807 79.2032C189.234 79.4251 189.567 79.7621 189.805 80.2144C190.053 80.6667 190.177 81.2171 190.177 81.8656V86H189.025V82.032C189.025 81.3323 188.85 80.7989 188.5 80.432C188.15 80.0565 187.672 79.8688 187.066 79.8688C186.452 79.8688 185.961 80.0608 185.594 80.4448C185.236 80.8288 185.057 81.3877 185.057 82.1216V86H183.892V76.528H185.057V79.984C185.287 79.6256 185.603 79.3483 186.004 79.152C186.413 78.9557 186.87 78.8576 187.373 78.8576ZM200.535 77.0784V78.0256H196.657V81.0336H199.805V81.9808H196.657V86H195.492V77.0784H200.535ZM201.507 82.4672C201.507 81.7504 201.652 81.1232 201.942 80.5856C202.232 80.0395 202.629 79.6171 203.132 79.3184C203.644 79.0197 204.212 78.8704 204.835 78.8704C205.449 78.8704 205.982 79.0027 206.435 79.2672C206.887 79.5317 207.224 79.8645 207.446 80.2656V78.9856H208.623V86H207.446V84.6944C207.215 85.104 206.87 85.4453 206.409 85.7184C205.957 85.9829 205.428 86.1152 204.822 86.1152C204.199 86.1152 203.636 85.9616 203.132 85.6544C202.629 85.3472 202.232 84.9163 201.942 84.3616C201.652 83.8069 201.507 83.1755 201.507 82.4672ZM207.446 82.48C207.446 81.9509 207.339 81.4901 207.126 81.0976C206.913 80.7051 206.622 80.4064 206.255 80.2016C205.897 79.9883 205.5 79.8816 205.065 79.8816C204.63 79.8816 204.233 79.984 203.875 80.1888C203.516 80.3936 203.23 80.6923 203.017 81.0848C202.804 81.4773 202.697 81.9381 202.697 82.4672C202.697 83.0048 202.804 83.4741 203.017 83.8752C203.23 84.2677 203.516 84.5707 203.875 84.784C204.233 84.9888 204.63 85.0912 205.065 85.0912C205.5 85.0912 205.897 84.9888 206.255 84.784C206.622 84.5707 206.913 84.2677 207.126 83.8752C207.339 83.4741 207.446 83.0091 207.446 82.48ZM210.157 82.48C210.157 81.7547 210.302 81.1232 210.592 80.5856C210.882 80.0395 211.283 79.6171 211.795 79.3184C212.316 79.0197 212.909 78.8704 213.574 78.8704C214.436 78.8704 215.144 79.0795 215.699 79.4976C216.262 79.9157 216.633 80.496 216.813 81.2384H215.558C215.439 80.8117 215.204 80.4747 214.854 80.2272C214.513 79.9797 214.086 79.856 213.574 79.856C212.909 79.856 212.371 80.0864 211.961 80.5472C211.552 80.9995 211.347 81.6437 211.347 82.48C211.347 83.3248 211.552 83.9776 211.961 84.4384C212.371 84.8992 212.909 85.1296 213.574 85.1296C214.086 85.1296 214.513 85.0101 214.854 84.7712C215.196 84.5323 215.43 84.1909 215.558 83.7472H216.813C216.625 84.464 216.249 85.04 215.686 85.4752C215.123 85.9019 214.419 86.1152 213.574 86.1152C212.909 86.1152 212.316 85.9659 211.795 85.6672C211.283 85.3685 210.882 84.9461 210.592 84.4C210.302 83.8539 210.157 83.2139 210.157 82.48ZM224.767 82.224C224.767 82.4459 224.754 82.6805 224.728 82.928H219.122C219.165 83.6192 219.399 84.1611 219.826 84.5536C220.261 84.9376 220.786 85.1296 221.4 85.1296C221.904 85.1296 222.322 85.0144 222.655 84.784C222.996 84.5451 223.235 84.2293 223.372 83.8368H224.626C224.438 84.5109 224.063 85.0613 223.5 85.488C222.936 85.9061 222.237 86.1152 221.4 86.1152C220.735 86.1152 220.138 85.9659 219.608 85.6672C219.088 85.3685 218.678 84.9461 218.38 84.4C218.081 83.8453 217.932 83.2053 217.932 82.48C217.932 81.7547 218.077 81.1189 218.367 80.5728C218.657 80.0267 219.062 79.6085 219.583 79.3184C220.112 79.0197 220.718 78.8704 221.4 78.8704C222.066 78.8704 222.655 79.0155 223.167 79.3056C223.679 79.5957 224.071 79.9968 224.344 80.5088C224.626 81.0123 224.767 81.584 224.767 82.224ZM223.564 81.9808C223.564 81.5371 223.466 81.1573 223.269 80.8416C223.073 80.5173 222.804 80.2741 222.463 80.112C222.13 79.9413 221.759 79.856 221.349 79.856C220.76 79.856 220.257 80.0437 219.839 80.4192C219.429 80.7947 219.195 81.3152 219.135 81.9808H223.564ZM227.469 80.2912C227.708 79.8731 228.058 79.5317 228.519 79.2672C228.98 79.0027 229.504 78.8704 230.093 78.8704C230.725 78.8704 231.292 79.0197 231.796 79.3184C232.299 79.6171 232.696 80.0395 232.986 80.5856C233.276 81.1232 233.421 81.7504 233.421 82.4672C233.421 83.1755 233.276 83.8069 232.986 84.3616C232.696 84.9163 232.295 85.3472 231.783 85.6544C231.279 85.9616 230.716 86.1152 230.093 86.1152C229.487 86.1152 228.954 85.9829 228.493 85.7184C228.041 85.4539 227.7 85.1168 227.469 84.7072V86H226.304V76.528H227.469V80.2912ZM232.231 82.4672C232.231 81.9381 232.124 81.4773 231.911 81.0848C231.697 80.6923 231.407 80.3936 231.04 80.1888C230.682 79.984 230.285 79.8816 229.85 79.8816C229.423 79.8816 229.026 79.9883 228.66 80.2016C228.301 80.4064 228.011 80.7093 227.789 81.1104C227.576 81.5029 227.469 81.9595 227.469 82.48C227.469 83.0091 227.576 83.4741 227.789 83.8752C228.011 84.2677 228.301 84.5707 228.66 84.784C229.026 84.9888 229.423 85.0912 229.85 85.0912C230.285 85.0912 230.682 84.9888 231.04 84.784C231.407 84.5707 231.697 84.2677 231.911 83.8752C232.124 83.4741 232.231 83.0048 232.231 82.4672ZM238.014 86.1152C237.356 86.1152 236.759 85.9659 236.222 85.6672C235.692 85.3685 235.274 84.9461 234.967 84.4C234.668 83.8453 234.519 83.2053 234.519 82.48C234.519 81.7632 234.673 81.1317 234.98 80.5856C235.296 80.0309 235.722 79.6085 236.26 79.3184C236.798 79.0197 237.399 78.8704 238.065 78.8704C238.73 78.8704 239.332 79.0197 239.87 79.3184C240.407 79.6085 240.83 80.0267 241.137 80.5728C241.452 81.1189 241.61 81.7547 241.61 82.48C241.61 83.2053 241.448 83.8453 241.124 84.4C240.808 84.9461 240.377 85.3685 239.831 85.6672C239.285 85.9659 238.679 86.1152 238.014 86.1152ZM238.014 85.0912C238.432 85.0912 238.824 84.9931 239.191 84.7968C239.558 84.6005 239.852 84.3061 240.074 83.9136C240.305 83.5211 240.42 83.0432 240.42 82.48C240.42 81.9168 240.309 81.4389 240.087 81.0464C239.865 80.6539 239.575 80.3637 239.217 80.176C238.858 79.9797 238.47 79.8816 238.052 79.8816C237.625 79.8816 237.233 79.9797 236.874 80.176C236.524 80.3637 236.243 80.6539 236.03 81.0464C235.816 81.4389 235.71 81.9168 235.71 82.48C235.71 83.0517 235.812 83.5339 236.017 83.9264C236.23 84.3189 236.512 84.6133 236.862 84.8096C237.211 84.9973 237.595 85.0912 238.014 85.0912ZM246.201 86.1152C245.544 86.1152 244.947 85.9659 244.409 85.6672C243.88 85.3685 243.462 84.9461 243.155 84.4C242.856 83.8453 242.707 83.2053 242.707 82.48C242.707 81.7632 242.86 81.1317 243.167 80.5856C243.483 80.0309 243.91 79.6085 244.447 79.3184C244.985 79.0197 245.587 78.8704 246.252 78.8704C246.918 78.8704 247.519 79.0197 248.057 79.3184C248.595 79.6085 249.017 80.0267 249.324 80.5728C249.64 81.1189 249.798 81.7547 249.798 82.48C249.798 83.2053 249.636 83.8453 249.311 84.4C248.996 84.9461 248.565 85.3685 248.019 85.6672C247.473 85.9659 246.867 86.1152 246.201 86.1152ZM246.201 85.0912C246.619 85.0912 247.012 84.9931 247.379 84.7968C247.746 84.6005 248.04 84.3061 248.262 83.9136C248.492 83.5211 248.607 83.0432 248.607 82.48C248.607 81.9168 248.497 81.4389 248.275 81.0464C248.053 80.6539 247.763 80.3637 247.404 80.176C247.046 79.9797 246.658 79.8816 246.239 79.8816C245.813 79.8816 245.42 79.9797 245.062 80.176C244.712 80.3637 244.43 80.6539 244.217 81.0464C244.004 81.4389 243.897 81.9168 243.897 82.48C243.897 83.0517 243.999 83.5339 244.204 83.9264C244.418 84.3189 244.699 84.6133 245.049 84.8096C245.399 84.9973 245.783 85.0912 246.201 85.0912ZM255.246 86L252.494 82.9024V86H251.329V76.528H252.494V82.096L255.195 78.9856H256.821L253.518 82.48L256.833 86H255.246Z" fill="#616161"/>
<rect x="1" y="115" width="380" height="48" rx="8" fill="#FAFAFA" stroke="#EEEEEE"/>
<path d="M138.925 142.053H142.049V143H137.761V134.078H138.925V142.053ZM146.345 143.115C145.688 143.115 145.09 142.966 144.553 142.667C144.024 142.369 143.606 141.946 143.298 141.4C143 140.845 142.85 140.205 142.85 139.48C142.85 138.763 143.004 138.132 143.311 137.586C143.627 137.031 144.054 136.609 144.591 136.318C145.129 136.02 145.73 135.87 146.396 135.87C147.062 135.87 147.663 136.02 148.201 136.318C148.738 136.609 149.161 137.027 149.468 137.573C149.784 138.119 149.942 138.755 149.942 139.48C149.942 140.205 149.779 140.845 149.455 141.4C149.139 141.946 148.709 142.369 148.162 142.667C147.616 142.966 147.01 143.115 146.345 143.115ZM146.345 142.091C146.763 142.091 147.155 141.993 147.522 141.797C147.889 141.601 148.184 141.306 148.406 140.914C148.636 140.521 148.751 140.043 148.751 139.48C148.751 138.917 148.64 138.439 148.418 138.046C148.197 137.654 147.906 137.364 147.548 137.176C147.19 136.98 146.801 136.882 146.383 136.882C145.957 136.882 145.564 136.98 145.206 137.176C144.856 137.364 144.574 137.654 144.361 138.046C144.147 138.439 144.041 138.917 144.041 139.48C144.041 140.052 144.143 140.534 144.348 140.926C144.561 141.319 144.843 141.613 145.193 141.81C145.543 141.997 145.927 142.091 146.345 142.091ZM154.366 135.87C154.972 135.87 155.501 136.003 155.953 136.267C156.414 136.532 156.755 136.865 156.977 137.266V135.986H158.155V143.154C158.155 143.794 158.018 144.361 157.745 144.856C157.472 145.359 157.079 145.752 156.567 146.034C156.064 146.315 155.475 146.456 154.801 146.456C153.879 146.456 153.111 146.238 152.497 145.803C151.883 145.368 151.52 144.775 151.409 144.024H152.561C152.689 144.451 152.954 144.792 153.355 145.048C153.756 145.313 154.238 145.445 154.801 145.445C155.441 145.445 155.962 145.244 156.363 144.843C156.772 144.442 156.977 143.879 156.977 143.154V141.682C156.747 142.091 156.405 142.433 155.953 142.706C155.501 142.979 154.972 143.115 154.366 143.115C153.743 143.115 153.175 142.962 152.663 142.654C152.16 142.347 151.763 141.916 151.473 141.362C151.183 140.807 151.038 140.175 151.038 139.467C151.038 138.75 151.183 138.123 151.473 137.586C151.763 137.039 152.16 136.617 152.663 136.318C153.175 136.02 153.743 135.87 154.366 135.87ZM156.977 139.48C156.977 138.951 156.87 138.49 156.657 138.098C156.444 137.705 156.154 137.406 155.787 137.202C155.428 136.988 155.031 136.882 154.596 136.882C154.161 136.882 153.764 136.984 153.406 137.189C153.047 137.394 152.762 137.692 152.548 138.085C152.335 138.477 152.228 138.938 152.228 139.467C152.228 140.005 152.335 140.474 152.548 140.875C152.762 141.268 153.047 141.571 153.406 141.784C153.764 141.989 154.161 142.091 154.596 142.091C155.031 142.091 155.428 141.989 155.787 141.784C156.154 141.571 156.444 141.268 156.657 140.875C156.87 140.474 156.977 140.009 156.977 139.48ZM164.7 134.078V143H163.536V134.078H164.7ZM170.103 135.858C170.957 135.858 171.648 136.118 172.177 136.638C172.706 137.15 172.97 137.893 172.97 138.866V143H171.818V139.032C171.818 138.332 171.643 137.799 171.294 137.432C170.944 137.057 170.466 136.869 169.86 136.869C169.246 136.869 168.755 137.061 168.388 137.445C168.03 137.829 167.85 138.388 167.85 139.122V143H166.686V135.986H167.85V136.984C168.081 136.626 168.392 136.348 168.785 136.152C169.186 135.956 169.625 135.858 170.103 135.858ZM187.63 135.986L185.441 143H184.238L182.548 137.432L180.858 143H179.655L177.454 135.986H178.644L180.257 141.874L181.998 135.986H183.188L184.89 141.886L186.478 135.986H187.63ZM189.387 134.846C189.165 134.846 188.978 134.77 188.824 134.616C188.67 134.462 188.594 134.275 188.594 134.053C188.594 133.831 188.67 133.643 188.824 133.49C188.978 133.336 189.165 133.259 189.387 133.259C189.601 133.259 189.78 133.336 189.925 133.49C190.078 133.643 190.155 133.831 190.155 134.053C190.155 134.275 190.078 134.462 189.925 134.616C189.78 134.77 189.601 134.846 189.387 134.846ZM189.95 135.986V143H188.786V135.986H189.95ZM193.356 136.946V141.08C193.356 141.421 193.429 141.665 193.574 141.81C193.719 141.946 193.971 142.014 194.329 142.014H195.187V143H194.137C193.489 143 193.002 142.851 192.678 142.552C192.354 142.253 192.192 141.763 192.192 141.08V136.946H191.283V135.986H192.192V134.219H193.356V135.986H195.187V136.946H193.356ZM200.08 135.858C200.609 135.858 201.087 135.973 201.513 136.203C201.94 136.425 202.273 136.762 202.512 137.214C202.759 137.667 202.883 138.217 202.883 138.866V143H201.731V139.032C201.731 138.332 201.556 137.799 201.206 137.432C200.856 137.057 200.378 136.869 199.772 136.869C199.158 136.869 198.667 137.061 198.3 137.445C197.942 137.829 197.763 138.388 197.763 139.122V143H196.598V133.528H197.763V136.984C197.993 136.626 198.309 136.348 198.71 136.152C199.12 135.956 199.576 135.858 200.08 135.858ZM213.472 141.016H209.58L208.864 143H207.635L210.86 134.13H212.204L215.417 143H214.188L213.472 141.016ZM213.139 140.069L211.526 135.563L209.913 140.069H213.139ZM217.988 137.278C218.218 136.877 218.56 136.545 219.012 136.28C219.473 136.007 220.006 135.87 220.612 135.87C221.235 135.87 221.798 136.02 222.301 136.318C222.813 136.617 223.215 137.039 223.505 137.586C223.795 138.123 223.94 138.75 223.94 139.467C223.94 140.175 223.795 140.807 223.505 141.362C223.215 141.916 222.813 142.347 222.301 142.654C221.798 142.962 221.235 143.115 220.612 143.115C220.015 143.115 219.485 142.983 219.025 142.718C218.572 142.445 218.227 142.108 217.988 141.707V146.328H216.823V135.986H217.988V137.278ZM222.749 139.467C222.749 138.938 222.643 138.477 222.429 138.085C222.216 137.692 221.926 137.394 221.559 137.189C221.201 136.984 220.804 136.882 220.369 136.882C219.942 136.882 219.545 136.988 219.178 137.202C218.82 137.406 218.53 137.709 218.308 138.11C218.095 138.503 217.988 138.959 217.988 139.48C217.988 140.009 218.095 140.474 218.308 140.875C218.53 141.268 218.82 141.571 219.178 141.784C219.545 141.989 219.942 142.091 220.369 142.091C220.804 142.091 221.201 141.989 221.559 141.784C221.926 141.571 222.216 141.268 222.429 140.875C222.643 140.474 222.749 140.005 222.749 139.467ZM226.638 137.278C226.868 136.877 227.21 136.545 227.662 136.28C228.123 136.007 228.656 135.87 229.262 135.87C229.885 135.87 230.448 136.02 230.951 136.318C231.463 136.617 231.865 137.039 232.155 137.586C232.445 138.123 232.59 138.75 232.59 139.467C232.59 140.175 232.445 140.807 232.155 141.362C231.865 141.916 231.463 142.347 230.951 142.654C230.448 142.962 229.885 143.115 229.262 143.115C228.665 143.115 228.135 142.983 227.675 142.718C227.222 142.445 226.877 142.108 226.638 141.707V146.328H225.473V135.986H226.638V137.278ZM231.399 139.467C231.399 138.938 231.293 138.477 231.079 138.085C230.866 137.692 230.576 137.394 230.209 137.189C229.851 136.984 229.454 136.882 229.019 136.882C228.592 136.882 228.195 136.988 227.828 137.202C227.47 137.406 227.18 137.709 226.958 138.11C226.745 138.503 226.638 138.959 226.638 139.48C226.638 140.009 226.745 140.474 226.958 140.875C227.18 141.268 227.47 141.571 227.828 141.784C228.195 141.989 228.592 142.091 229.019 142.091C229.454 142.091 229.851 141.989 230.209 141.784C230.576 141.571 230.866 141.268 231.079 140.875C231.293 140.474 231.399 140.005 231.399 139.467ZM235.288 133.528V143H234.123V133.528H235.288ZM243.673 139.224C243.673 139.446 243.66 139.681 243.635 139.928H238.028C238.071 140.619 238.306 141.161 238.732 141.554C239.168 141.938 239.692 142.13 240.307 142.13C240.81 142.13 241.228 142.014 241.561 141.784C241.902 141.545 242.141 141.229 242.278 140.837H243.532C243.345 141.511 242.969 142.061 242.406 142.488C241.843 142.906 241.143 143.115 240.307 143.115C239.641 143.115 239.044 142.966 238.515 142.667C237.994 142.369 237.585 141.946 237.286 141.4C236.987 140.845 236.838 140.205 236.838 139.48C236.838 138.755 236.983 138.119 237.273 137.573C237.563 137.027 237.969 136.609 238.489 136.318C239.018 136.02 239.624 135.87 240.307 135.87C240.972 135.87 241.561 136.015 242.073 136.306C242.585 136.596 242.978 136.997 243.251 137.509C243.532 138.012 243.673 138.584 243.673 139.224ZM242.47 138.981C242.47 138.537 242.372 138.157 242.176 137.842C241.979 137.517 241.71 137.274 241.369 137.112C241.036 136.941 240.665 136.856 240.256 136.856C239.667 136.856 239.163 137.044 238.745 137.419C238.336 137.795 238.101 138.315 238.041 138.981H242.47Z" fill="#616161"/>
<mask id="mask2_7_7340" style="mask-type:luminance" maskUnits="userSpaceOnUse" x="41" y="130" width="14" height="18">
<rect x="41" y="130" width="13.5" height="18" fill="white"/>
</mask>
<g mask="url(#mask2_7_7340)">
<path fill-rule="evenodd" clip-rule="evenodd" d="M52.2043 139.446C52.1973 138.156 52.7809 137.182 53.9621 136.465C53.3012 135.52 52.3027 134.999 50.9844 134.897C49.7363 134.799 48.3723 135.625 47.873 135.625C47.3457 135.625 46.1363 134.932 45.1871 134.932C43.2254 134.964 41.1406 136.497 41.1406 139.615C41.1406 140.536 41.3094 141.488 41.6469 142.47C42.0969 143.76 43.7211 146.924 45.4156 146.871C46.3016 146.85 46.9273 146.242 48.0805 146.242C49.1984 146.242 49.7785 146.871 50.7664 146.871C52.475 146.847 53.9445 143.971 54.3734 142.677C52.0813 141.598 52.2043 139.513 52.2043 139.446L52.2043 139.446ZM50.2144 133.674C51.1742 132.535 51.0863 131.498 51.0582 131.125C50.2109 131.174 49.2301 131.702 48.6711 132.352C48.0558 133.048 47.6937 133.909 47.7711 134.88C48.6887 134.95 49.5254 134.479 50.2144 133.674Z" fill="black"/>
</g>
</svg>
